<svg width="36" height="36" viewBox="0 0 36 36" xmlns="http://www.w3.org/2000/svg" xmlns:xlink="http://www.w3.org/1999/xlink">
    <path id="path1" fill="#ffffff" stroke="none" d="M 33.799999 35.950001 L 20.65 22.799999 C 19.65 23.666666 18.483334 24.341667 17.15 24.825001 C 15.816666 25.308332 14.4 25.549999 12.9 25.549999 C 9.3 25.549999 6.25 24.299999 3.75 21.799999 C 1.25 19.299999 0 16.283333 0 12.75 C 0 9.216667 1.25 6.200001 3.75 3.700001 C 6.25 1.200001 9.283334 -0.049999 12.85 -0.049999 C 16.383333 -0.049999 19.391666 1.200001 21.875 3.700001 C 24.358334 6.200001 25.6 9.216667 25.6 12.75 C 25.6 14.183332 25.366667 15.566666 24.9 16.9 C 24.433334 18.233334 23.733334 19.483334 22.799999 20.65 L 36 33.75 Z M 12.85 22.549999 C 15.549999 22.549999 17.85 21.591665 19.75 19.674999 C 21.65 17.758333 22.6 15.449999 22.6 12.75 C 22.6 10.050001 21.65 7.741669 19.75 5.825001 C 17.85 3.908333 15.549999 2.950001 12.85 2.950001 C 10.116667 2.950001 7.791667 3.908333 5.875 5.825001 C 3.958333 7.741669 3 10.050001 3 12.75 C 3 15.449999 3.958333 17.758333 5.875 19.674999 C 7.791667 21.591665 10.116667 22.549999 12.85 22.549999 Z"/>
</svg>
